<?xml version="1.0" encoding="UTF-8"?>
<svg xmlns="http://www.w3.org/2000/svg" xmlns:xlink="http://www.w3.org/1999/xlink" width="720pt" height="720pt" viewBox="0 0 720 720">
<path fill-rule="nonzero" fill="rgb(100%, 100%, 100%)" fill-opacity="1" d="M 316.878906 188.144531 L 316.878906 197.363281 C 327.121094 197.363281 335.828125 200.949219 343 208.121094 C 350.171875 215.289062 353.757812 223.996094 353.757812 234.242188 C 353.757812 244.488281 350.171875 253.195312 343 260.363281 C 335.828125 267.535156 327.179688 271.121094 317.050781 271.121094 C 306.917969 271.121094 298.269531 267.535156 291.097656 260.363281 C 283.925781 253.195312 280.339844 244.488281 280.339844 234.242188 L 271.121094 234.242188 L 271.121094 280.339844 L 275.558594 280.339844 C 285.804688 280.339844 294.511719 283.925781 301.683594 291.097656 C 308.855469 298.269531 312.4375 306.917969 312.4375 317.050781 C 312.4375 327.179688 308.855469 335.828125 301.683594 343 C 294.511719 350.171875 285.804688 353.757812 275.558594 353.757812 C 265.773438 353.757812 257.292969 350.34375 250.121094 343.511719 C 242.949219 336.683594 239.25 328.375 239.023438 318.585938 L 229.460938 318.585938 C 229.234375 328.375 225.535156 336.683594 218.363281 343.511719 C 211.191406 350.34375 202.714844 353.757812 192.925781 353.757812 C 182.679688 353.757812 173.972656 350.171875 166.800781 343 C 159.632812 335.828125 156.046875 327.179688 156.046875 317.050781 C 156.046875 306.917969 159.632812 298.269531 166.800781 291.097656 C 173.972656 283.925781 182.679688 280.339844 192.925781 280.339844 L 197.363281 280.339844 L 197.363281 234.242188 L 188.144531 234.242188 C 188.144531 244.488281 184.558594 253.195312 177.386719 260.363281 C 170.21875 267.535156 161.566406 271.121094 151.4375 271.121094 C 141.304688 271.121094 132.65625 267.535156 125.484375 260.363281 C 118.3125 253.195312 114.726562 244.488281 114.726562 234.242188 C 114.726562 223.996094 118.3125 215.289062 125.484375 208.121094 C 132.65625 200.949219 141.363281 197.363281 151.605469 197.363281 L 151.605469 188.144531 C 141.363281 188.144531 132.65625 184.558594 125.484375 177.386719 C 118.3125 170.21875 114.726562 161.566406 114.726562 151.4375 C 114.726562 141.304688 118.3125 132.65625 125.484375 125.484375 C 132.65625 118.3125 141.304688 114.726562 151.4375 114.726562 C 161.566406 114.726562 170.21875 118.3125 177.386719 125.484375 C 184.558594 132.65625 188.144531 141.363281 188.144531 151.605469 L 197.363281 151.605469 C 197.363281 141.363281 200.949219 132.65625 208.121094 125.484375 C 215.289062 118.3125 223.996094 114.726562 234.242188 114.726562 C 244.488281 114.726562 253.195312 118.3125 260.363281 125.484375 C 267.535156 132.65625 271.121094 141.363281 271.121094 151.605469 L 280.339844 151.605469 C 280.339844 141.363281 283.925781 132.65625 291.097656 125.484375 C 298.269531 118.3125 306.917969 114.726562 317.050781 114.726562 C 327.179688 114.726562 335.828125 118.3125 343 125.484375 C 350.171875 132.65625 353.757812 141.304688 353.757812 151.4375 C 353.757812 161.566406 350.171875 170.21875 343 177.386719 C 335.828125 184.558594 327.121094 188.144531 316.878906 188.144531 "/>
<path fill-rule="nonzero" fill="rgb(100%, 100%, 100%)" fill-opacity="1" d="M 568.394531 271.121094 L 568.394531 280.339844 C 578.636719 280.339844 587.34375 283.925781 594.515625 291.097656 C 601.6875 298.269531 605.273438 306.917969 605.273438 317.050781 C 605.273438 327.179688 601.6875 335.828125 594.515625 343 C 587.34375 350.171875 578.695312 353.757812 568.5625 353.757812 C 558.433594 353.757812 549.78125 350.171875 542.613281 343 C 535.441406 335.828125 531.855469 327.121094 531.855469 316.878906 L 531.855469 189.851562 L 522.636719 189.851562 L 522.636719 316.878906 C 522.636719 327.121094 519.050781 335.828125 511.878906 343 C 504.710938 350.171875 496.003906 353.757812 485.757812 353.757812 C 475.511719 353.757812 466.804688 350.171875 459.636719 343 C 452.464844 335.828125 448.878906 327.121094 448.878906 316.878906 L 448.878906 188.144531 L 439.660156 188.144531 L 439.660156 316.878906 C 439.660156 327.121094 436.074219 335.828125 428.902344 343 C 421.730469 350.171875 413.082031 353.757812 402.949219 353.757812 C 392.820312 353.757812 384.171875 350.171875 377 343 C 369.828125 335.828125 366.242188 327.179688 366.242188 317.050781 C 366.242188 306.917969 369.828125 298.269531 377 291.097656 C 384.171875 283.925781 392.878906 280.339844 403.121094 280.339844 L 403.121094 271.121094 C 392.878906 271.121094 384.171875 267.535156 377 260.363281 C 369.828125 253.195312 366.242188 244.488281 366.242188 234.242188 C 366.242188 223.996094 369.828125 215.289062 377 208.121094 C 384.171875 200.949219 392.878906 197.363281 403.121094 197.363281 L 403.121094 188.144531 C 392.878906 188.144531 384.171875 184.558594 377 177.386719 C 369.828125 170.21875 366.242188 161.566406 366.242188 151.4375 C 366.242188 141.304688 369.828125 132.65625 377 125.484375 C 384.171875 118.3125 392.820312 114.726562 402.949219 114.726562 C 413.082031 114.726562 421.730469 118.3125 428.902344 125.484375 C 436.074219 132.65625 439.660156 141.363281 439.660156 151.605469 L 448.878906 151.605469 C 448.878906 141.363281 452.464844 132.65625 459.636719 125.484375 C 466.804688 118.3125 475.511719 114.726562 485.757812 114.726562 C 496.003906 114.726562 504.710938 118.3125 511.878906 125.484375 C 519.050781 132.65625 522.636719 141.363281 522.636719 151.605469 L 531.855469 151.605469 C 531.855469 141.363281 535.441406 132.65625 542.613281 125.484375 C 549.78125 118.3125 558.433594 114.726562 568.5625 114.726562 C 578.695312 114.726562 587.34375 118.3125 594.515625 125.484375 C 601.6875 132.65625 605.273438 141.304688 605.273438 151.4375 C 605.273438 161.566406 601.6875 170.21875 594.515625 177.386719 C 587.34375 184.558594 578.636719 188.144531 568.394531 188.144531 L 568.394531 197.363281 C 578.636719 197.363281 587.34375 200.949219 594.515625 208.121094 C 601.6875 215.289062 605.273438 223.996094 605.273438 234.242188 C 605.273438 244.488281 601.6875 253.195312 594.515625 260.363281 C 587.34375 267.535156 578.636719 271.121094 568.394531 271.121094 "/>
<path fill-rule="nonzero" fill="rgb(100%, 100%, 100%)" fill-opacity="1" d="M 316.878906 531.855469 C 327.121094 531.855469 335.828125 535.441406 343 542.613281 C 350.171875 549.78125 353.757812 558.433594 353.757812 568.5625 C 353.757812 578.695312 350.171875 587.34375 343 594.515625 C 335.828125 601.6875 327.179688 605.273438 317.050781 605.273438 C 306.917969 605.273438 298.269531 601.6875 291.097656 594.515625 C 283.925781 587.34375 280.339844 578.636719 280.339844 568.394531 L 271.121094 568.394531 C 271.121094 578.636719 267.535156 587.34375 260.363281 594.515625 C 253.195312 601.6875 244.488281 605.273438 234.242188 605.273438 C 223.996094 605.273438 215.289062 601.6875 208.121094 594.515625 C 200.949219 587.34375 197.363281 578.636719 197.363281 568.394531 L 188.144531 568.394531 C 188.144531 578.636719 184.558594 587.34375 177.386719 594.515625 C 170.21875 601.6875 161.566406 605.273438 151.4375 605.273438 C 141.304688 605.273438 132.65625 601.6875 125.484375 594.515625 C 118.3125 587.34375 114.726562 578.695312 114.726562 568.5625 C 114.726562 558.433594 118.3125 549.78125 125.484375 542.613281 C 132.65625 535.441406 141.363281 531.855469 151.605469 531.855469 L 151.605469 522.636719 C 141.363281 522.636719 132.65625 519.050781 125.484375 511.878906 C 118.3125 504.710938 114.726562 496.003906 114.726562 485.757812 C 114.726562 475.511719 118.3125 466.804688 125.484375 459.636719 C 132.65625 452.464844 141.363281 448.878906 151.605469 448.878906 L 151.605469 439.660156 C 141.363281 439.660156 132.65625 436.074219 125.484375 428.902344 C 118.3125 421.730469 114.726562 413.082031 114.726562 402.949219 C 114.726562 392.820312 118.3125 384.171875 125.484375 377 C 132.65625 369.828125 141.304688 366.242188 151.4375 366.242188 C 161.566406 366.242188 170.21875 369.828125 177.386719 377 C 184.558594 384.171875 188.144531 392.878906 188.144531 403.121094 L 197.363281 403.121094 C 197.363281 392.878906 200.949219 384.171875 208.121094 377 C 215.289062 369.828125 223.996094 366.242188 234.242188 366.242188 C 244.488281 366.242188 253.195312 369.828125 260.363281 377 C 267.535156 384.171875 271.121094 392.820312 271.121094 402.949219 C 271.121094 413.082031 267.535156 421.730469 260.363281 428.902344 C 253.195312 436.074219 244.488281 439.660156 234.242188 439.660156 L 234.242188 485.757812 L 280.339844 485.757812 C 280.339844 475.511719 283.925781 466.804688 291.097656 459.636719 C 298.269531 452.464844 306.917969 448.878906 317.050781 448.878906 C 327.179688 448.878906 335.828125 452.464844 343 459.636719 C 350.171875 466.804688 353.757812 475.511719 353.757812 485.757812 C 353.757812 496.003906 350.171875 504.710938 343 511.878906 C 335.828125 519.050781 327.121094 522.636719 316.878906 522.636719 Z M 316.878906 531.855469 "/>
<path fill-rule="nonzero" fill="rgb(100%, 100%, 100%)" fill-opacity="1" d="M 568.394531 522.636719 L 568.394531 531.855469 C 578.636719 531.855469 587.34375 535.441406 594.515625 542.613281 C 601.6875 549.78125 605.273438 558.433594 605.273438 568.5625 C 605.273438 578.695312 601.6875 587.34375 594.515625 594.515625 C 587.34375 601.6875 578.695312 605.273438 568.5625 605.273438 C 558.433594 605.273438 549.78125 601.6875 542.613281 594.515625 C 535.441406 587.34375 531.855469 578.636719 531.855469 568.394531 L 522.636719 568.394531 C 522.636719 578.636719 519.050781 587.34375 511.878906 594.515625 C 504.710938 601.6875 496.003906 605.273438 485.757812 605.273438 C 475.511719 605.273438 466.804688 601.6875 459.636719 594.515625 C 452.464844 587.34375 448.878906 578.636719 448.878906 568.394531 L 439.660156 568.394531 C 439.660156 578.636719 436.074219 587.34375 428.902344 594.515625 C 421.730469 601.6875 413.082031 605.273438 402.949219 605.273438 C 392.820312 605.273438 384.171875 601.6875 377 594.515625 C 369.828125 587.34375 366.242188 578.695312 366.242188 568.5625 C 366.242188 558.433594 369.828125 549.78125 377 542.613281 C 384.171875 535.441406 392.878906 531.855469 403.121094 531.855469 L 531.855469 531.855469 L 531.855469 522.636719 L 403.121094 522.636719 C 392.878906 522.636719 384.171875 519.050781 377 511.878906 C 369.828125 504.710938 366.242188 496.003906 366.242188 485.757812 C 366.242188 475.511719 369.828125 466.804688 377 459.636719 C 384.171875 452.464844 392.878906 448.878906 403.121094 448.878906 L 403.121094 439.660156 C 392.878906 439.660156 384.171875 436.074219 377 428.902344 C 369.828125 421.730469 366.242188 413.082031 366.242188 402.949219 C 366.242188 392.820312 369.828125 384.171875 377 377 C 384.171875 369.828125 392.820312 366.242188 402.949219 366.242188 C 413.082031 366.242188 421.730469 369.828125 428.902344 377 C 436.074219 384.171875 439.660156 392.878906 439.660156 403.121094 L 448.878906 403.121094 C 448.878906 392.878906 452.464844 384.171875 459.636719 377 C 466.804688 369.828125 475.511719 366.242188 485.757812 366.242188 C 496.003906 366.242188 504.710938 369.828125 511.878906 377 C 519.050781 384.171875 522.636719 392.878906 522.636719 403.121094 L 531.855469 403.121094 C 531.855469 392.878906 535.441406 384.171875 542.613281 377 C 549.78125 369.828125 558.433594 366.242188 568.5625 366.242188 C 578.695312 366.242188 587.34375 369.828125 594.515625 377 C 601.6875 384.171875 605.273438 392.820312 605.273438 402.949219 C 605.273438 413.082031 601.6875 421.730469 594.515625 428.902344 C 587.34375 436.074219 578.636719 439.660156 568.394531 439.660156 L 439.660156 439.660156 L 439.660156 448.878906 L 568.394531 448.878906 C 578.636719 448.878906 587.34375 452.464844 594.515625 459.636719 C 601.6875 466.804688 605.273438 475.511719 605.273438 485.757812 C 605.273438 496.003906 601.6875 504.710938 594.515625 511.878906 C 587.34375 519.050781 578.636719 522.636719 568.394531 522.636719 "/>
</svg>
