<?xml version="1.0" encoding="UTF-8"?>
<svg xmlns="http://www.w3.org/2000/svg" xmlns:xlink="http://www.w3.org/1999/xlink" width="841.92pt" height="228.96pt" viewBox="0 0 841.92 228.96">
<path fill-rule="nonzero" fill="rgb(100%, 100%, 100%)" fill-opacity="1" d="M 159.195312 98.382812 L 159.195312 101.601562 C 162.773438 101.601562 165.816406 102.851562 168.320312 105.359375 C 170.824219 107.863281 172.074219 110.902344 172.074219 114.480469 C 172.074219 118.058594 170.824219 121.097656 168.320312 123.601562 C 165.816406 126.105469 162.792969 127.359375 159.257812 127.359375 C 155.71875 127.359375 152.699219 126.105469 150.195312 123.601562 C 147.691406 121.097656 146.4375 118.058594 146.4375 114.480469 L 143.21875 114.480469 L 143.21875 130.578125 L 144.769531 130.578125 C 148.34375 130.578125 151.386719 131.832031 153.890625 134.335938 C 156.394531 136.839844 157.648438 139.859375 157.648438 143.398438 C 157.648438 146.933594 156.394531 149.957031 153.890625 152.460938 C 151.386719 154.964844 148.34375 156.21875 144.769531 156.21875 C 141.351562 156.21875 138.386719 155.023438 135.882812 152.640625 C 133.378906 150.253906 132.089844 147.351562 132.007812 143.933594 L 128.671875 143.933594 C 128.589844 147.351562 127.296875 150.253906 124.792969 152.640625 C 122.289062 155.023438 119.328125 156.21875 115.910156 156.21875 C 112.332031 156.21875 109.292969 154.964844 106.789062 152.460938 C 104.285156 149.957031 103.03125 146.933594 103.03125 143.398438 C 103.03125 139.859375 104.285156 136.839844 106.789062 134.335938 C 109.292969 131.832031 112.332031 130.578125 115.910156 130.578125 L 117.460938 130.578125 L 117.460938 114.480469 L 114.242188 114.480469 C 114.242188 118.058594 112.988281 121.097656 110.484375 123.601562 C 107.980469 126.105469 104.960938 127.359375 101.421875 127.359375 C 97.882812 127.359375 94.863281 126.105469 92.359375 123.601562 C 89.855469 121.097656 88.601562 118.058594 88.601562 114.480469 C 88.601562 110.902344 89.855469 107.863281 92.359375 105.359375 C 94.863281 102.851562 97.902344 101.601562 101.480469 101.601562 L 101.480469 98.382812 C 97.902344 98.382812 94.863281 97.128906 92.359375 94.625 C 89.855469 92.121094 88.601562 89.101562 88.601562 85.5625 C 88.601562 82.023438 89.855469 79.003906 92.359375 76.5 C 94.863281 73.996094 97.882812 72.742188 101.421875 72.742188 C 104.960938 72.742188 107.980469 73.996094 110.484375 76.5 C 112.988281 79.003906 114.242188 82.046875 114.242188 85.621094 L 117.460938 85.621094 C 117.460938 82.046875 118.710938 79.003906 121.21875 76.5 C 123.722656 73.996094 126.761719 72.742188 130.339844 72.742188 C 133.914062 72.742188 136.957031 73.996094 139.460938 76.5 C 141.964844 79.003906 143.21875 82.046875 143.21875 85.621094 L 146.4375 85.621094 C 146.4375 82.046875 147.691406 79.003906 150.195312 76.5 C 152.699219 73.996094 155.71875 72.742188 159.257812 72.742188 C 162.792969 72.742188 165.816406 73.996094 168.320312 76.5 C 170.824219 79.003906 172.074219 82.023438 172.074219 85.5625 C 172.074219 89.101562 170.824219 92.121094 168.320312 94.625 C 165.816406 97.128906 162.773438 98.382812 159.195312 98.382812 "/>
<path fill-rule="nonzero" fill="rgb(100%, 100%, 100%)" fill-opacity="1" d="M 225.617188 105.417969 C 228.160156 107.882812 229.433594 110.902344 229.433594 114.480469 C 229.433594 118.058594 228.183594 121.097656 225.675781 123.601562 C 223.171875 126.105469 220.132812 127.359375 216.554688 127.359375 L 216.554688 130.578125 C 220.132812 130.578125 223.171875 131.828125 225.675781 134.335938 C 228.183594 136.839844 229.433594 139.859375 229.433594 143.398438 C 229.433594 146.933594 228.183594 149.957031 225.675781 152.460938 C 223.171875 154.964844 220.132812 156.21875 216.554688 156.21875 C 212.976562 156.21875 209.9375 154.964844 207.433594 152.460938 C 204.929688 149.957031 203.675781 146.914062 203.675781 143.339844 L 200.457031 143.339844 C 200.457031 146.914062 199.203125 149.957031 196.699219 152.460938 C 194.195312 154.964844 191.175781 156.21875 187.636719 156.21875 C 184.101562 156.21875 181.078125 154.964844 178.574219 152.460938 C 176.070312 149.957031 174.816406 146.933594 174.816406 143.398438 C 174.816406 139.859375 176.070312 136.839844 178.574219 134.335938 C 181.078125 131.828125 184.121094 130.578125 187.695312 130.578125 L 187.695312 127.359375 C 184.121094 127.359375 181.078125 126.105469 178.574219 123.601562 C 176.070312 121.097656 174.816406 118.058594 174.816406 114.480469 C 174.816406 110.902344 176.070312 107.863281 178.574219 105.359375 C 181.078125 102.851562 184.121094 101.601562 187.695312 101.601562 L 187.695312 98.382812 C 184.121094 98.382812 181.078125 97.128906 178.574219 94.625 C 176.070312 92.121094 174.816406 89.101562 174.816406 85.5625 C 174.816406 82.023438 176.070312 79.003906 178.574219 76.5 C 181.078125 73.996094 184.101562 72.742188 187.636719 72.742188 C 191.175781 72.742188 194.195312 73.996094 196.699219 76.5 C 199.203125 79.003906 200.457031 82.046875 200.457031 85.621094 L 203.675781 85.621094 C 203.675781 82.046875 204.929688 79.003906 207.433594 76.5 C 209.9375 73.996094 212.976562 72.742188 216.554688 72.742188 C 220.132812 72.742188 223.171875 73.996094 225.675781 76.5 C 228.183594 79.003906 229.433594 82.023438 229.433594 85.5625 C 229.433594 89.101562 228.183594 92.121094 225.675781 94.625 C 223.171875 97.128906 220.132812 98.382812 216.554688 98.382812 L 216.554688 101.601562 C 220.132812 101.601562 223.152344 102.871094 225.617188 105.417969 "/>
<path fill-rule="nonzero" fill="rgb(100%, 100%, 100%)" fill-opacity="1" d="M 304.082031 127.359375 L 304.082031 130.578125 C 307.660156 130.578125 310.699219 131.828125 313.203125 134.335938 C 315.710938 136.839844 316.960938 139.859375 316.960938 143.398438 C 316.960938 146.933594 315.710938 149.957031 313.203125 152.460938 C 310.699219 154.964844 307.679688 156.21875 304.140625 156.21875 C 300.605469 156.21875 297.582031 154.964844 295.078125 152.460938 C 292.574219 149.957031 291.324219 146.914062 291.324219 143.339844 L 291.324219 98.976562 L 288.101562 98.976562 L 288.101562 143.339844 C 288.101562 146.914062 286.851562 149.957031 284.347656 152.460938 C 281.84375 154.964844 278.800781 156.21875 275.226562 156.21875 C 271.648438 156.21875 268.605469 154.964844 266.101562 152.460938 C 263.597656 149.957031 262.347656 146.914062 262.347656 143.339844 L 262.347656 98.382812 L 259.125 98.382812 L 259.125 143.339844 C 259.125 146.914062 257.875 149.957031 255.371094 152.460938 C 252.867188 154.964844 249.84375 156.21875 246.308594 156.21875 C 242.769531 156.21875 239.75 154.964844 237.242188 152.460938 C 234.738281 149.957031 233.488281 146.933594 233.488281 143.398438 C 233.488281 139.859375 234.738281 136.839844 237.242188 134.335938 C 239.75 131.828125 242.789062 130.578125 246.367188 130.578125 L 246.367188 127.359375 C 242.789062 127.359375 239.75 126.105469 237.242188 123.601562 C 234.738281 121.097656 233.488281 118.058594 233.488281 114.480469 C 233.488281 110.902344 234.738281 107.863281 237.242188 105.359375 C 239.75 102.851562 242.789062 101.601562 246.367188 101.601562 L 246.367188 98.382812 C 242.789062 98.382812 239.75 97.128906 237.242188 94.625 C 234.738281 92.121094 233.488281 89.101562 233.488281 85.5625 C 233.488281 82.023438 234.738281 79.003906 237.242188 76.5 C 239.75 73.996094 242.769531 72.742188 246.308594 72.742188 C 249.84375 72.742188 252.867188 73.996094 255.371094 76.5 C 257.875 79.003906 259.125 82.046875 259.125 85.621094 L 262.347656 85.621094 C 262.347656 82.046875 263.597656 79.003906 266.101562 76.5 C 268.605469 73.996094 271.648438 72.742188 275.226562 72.742188 C 278.800781 72.742188 281.84375 73.996094 284.347656 76.5 C 286.851562 79.003906 288.101562 82.046875 288.101562 85.621094 L 291.324219 85.621094 C 291.324219 82.046875 292.574219 79.003906 295.078125 76.5 C 297.582031 73.996094 300.605469 72.742188 304.140625 72.742188 C 307.679688 72.742188 310.699219 73.996094 313.203125 76.5 C 315.710938 79.003906 316.960938 82.023438 316.960938 85.5625 C 316.960938 89.101562 315.710938 92.121094 313.203125 94.625 C 310.699219 97.128906 307.660156 98.382812 304.082031 98.382812 L 304.082031 101.601562 C 307.660156 101.601562 310.699219 102.851562 313.203125 105.359375 C 315.710938 107.863281 316.960938 110.902344 316.960938 114.480469 C 316.960938 118.058594 315.710938 121.097656 313.203125 123.601562 C 310.699219 126.105469 307.660156 127.359375 304.082031 127.359375 "/>
<path fill-rule="nonzero" fill="rgb(100%, 100%, 100%)" fill-opacity="1" d="M 391.609375 127.359375 L 362.753906 127.359375 L 362.753906 130.578125 L 391.609375 130.578125 C 395.1875 130.578125 398.226562 131.828125 400.730469 134.335938 C 403.238281 136.839844 404.488281 139.859375 404.488281 143.398438 C 404.488281 146.933594 403.238281 149.957031 400.730469 152.460938 C 398.226562 154.964844 395.207031 156.21875 391.671875 156.21875 C 388.132812 156.21875 385.109375 154.964844 382.605469 152.460938 C 380.101562 149.957031 378.851562 146.914062 378.851562 143.339844 L 375.632812 143.339844 C 375.632812 146.914062 374.378906 149.957031 371.875 152.460938 C 369.371094 154.964844 366.328125 156.21875 362.753906 156.21875 C 359.175781 156.21875 356.132812 154.964844 353.628906 152.460938 C 351.125 149.957031 349.871094 146.914062 349.871094 143.339844 L 346.652344 143.339844 C 346.652344 146.914062 345.402344 149.957031 342.898438 152.460938 C 340.394531 154.964844 337.371094 156.21875 333.835938 156.21875 C 330.296875 156.21875 327.277344 154.964844 324.773438 152.460938 C 322.269531 149.957031 321.015625 146.933594 321.015625 143.398438 C 321.015625 139.859375 322.269531 136.839844 324.773438 134.335938 C 327.277344 131.828125 330.316406 130.578125 333.894531 130.578125 L 333.894531 127.359375 C 330.316406 127.359375 327.277344 126.105469 324.773438 123.601562 C 322.269531 121.097656 321.015625 118.058594 321.015625 114.480469 C 321.015625 110.902344 322.269531 107.863281 324.773438 105.359375 C 327.277344 102.851562 330.316406 101.601562 333.894531 101.601562 L 333.894531 98.382812 C 330.316406 98.382812 327.277344 97.128906 324.773438 94.625 C 322.269531 92.121094 321.015625 89.101562 321.015625 85.5625 C 321.015625 82.023438 322.269531 79.003906 324.773438 76.5 C 327.277344 73.996094 330.296875 72.742188 333.835938 72.742188 C 337.371094 72.742188 340.394531 73.996094 342.898438 76.5 C 345.402344 79.003906 346.652344 82.046875 346.652344 85.621094 L 349.871094 85.621094 C 349.871094 82.046875 351.125 79.003906 353.628906 76.5 C 356.132812 73.996094 359.175781 72.742188 362.753906 72.742188 C 366.328125 72.742188 369.371094 73.996094 371.875 76.5 C 374.378906 79.003906 375.632812 82.046875 375.632812 85.621094 L 378.851562 85.621094 C 378.851562 82.046875 380.101562 79.003906 382.605469 76.5 C 385.109375 73.996094 388.132812 72.742188 391.671875 72.742188 C 395.207031 72.742188 398.226562 73.996094 400.730469 76.5 C 403.238281 79.003906 404.488281 82.023438 404.488281 85.5625 C 404.488281 89.101562 403.238281 92.121094 400.730469 94.625 C 398.226562 97.128906 395.1875 98.382812 391.609375 98.382812 L 362.753906 98.382812 L 362.753906 101.601562 L 391.609375 101.601562 C 395.1875 101.601562 398.226562 102.851562 400.730469 105.359375 C 403.238281 107.863281 404.488281 110.902344 404.488281 114.480469 C 404.488281 118.058594 403.238281 121.097656 400.730469 123.601562 C 398.226562 126.105469 395.1875 127.359375 391.609375 127.359375 "/>
<path fill-rule="nonzero" fill="rgb(100%, 100%, 100%)" fill-opacity="1" d="M 479.136719 130.578125 C 482.714844 130.578125 485.757812 131.832031 488.261719 134.335938 C 490.765625 136.839844 492.015625 139.859375 492.015625 143.398438 C 492.015625 146.933594 490.765625 149.957031 488.261719 152.460938 C 485.757812 154.964844 482.734375 156.214844 479.195312 156.214844 C 475.660156 156.214844 472.640625 154.964844 470.132812 152.460938 C 467.628906 149.957031 466.378906 146.914062 466.378906 143.339844 L 463.15625 143.339844 C 463.15625 146.914062 461.90625 149.957031 459.402344 152.460938 C 456.898438 154.964844 453.855469 156.214844 450.28125 156.214844 C 446.703125 156.214844 443.660156 154.964844 441.15625 152.460938 C 438.652344 149.957031 437.402344 146.914062 437.402344 143.339844 L 434.179688 143.339844 C 434.179688 146.914062 432.929688 149.957031 430.425781 152.460938 C 427.921875 154.964844 424.898438 156.214844 421.363281 156.214844 C 417.824219 156.214844 414.804688 154.964844 412.300781 152.460938 C 409.796875 149.957031 408.542969 146.933594 408.542969 143.398438 C 408.542969 139.859375 409.796875 136.839844 412.300781 134.335938 C 414.804688 131.832031 417.84375 130.578125 421.421875 130.578125 L 421.421875 127.359375 C 417.84375 127.359375 414.804688 126.105469 412.300781 123.601562 C 409.796875 121.097656 408.542969 118.058594 408.542969 114.480469 C 408.542969 110.902344 409.796875 107.863281 412.300781 105.359375 C 414.804688 102.851562 417.84375 101.601562 421.421875 101.601562 L 421.421875 98.382812 C 417.84375 98.382812 414.804688 97.128906 412.300781 94.625 C 409.796875 92.121094 408.542969 89.101562 408.542969 85.5625 C 408.542969 82.027344 409.796875 79.003906 412.300781 76.5 C 414.804688 73.996094 417.824219 72.742188 421.363281 72.742188 C 424.898438 72.742188 427.921875 73.996094 430.425781 76.5 C 432.929688 79.003906 434.179688 82.046875 434.179688 85.621094 L 437.402344 85.621094 C 437.402344 82.046875 438.652344 79.003906 441.15625 76.5 C 443.660156 73.996094 446.703125 72.742188 450.28125 72.742188 C 453.855469 72.742188 456.898438 73.996094 459.402344 76.5 C 461.90625 79.003906 463.15625 82.027344 463.15625 85.5625 C 463.15625 89.101562 461.90625 92.121094 459.402344 94.625 C 456.898438 97.128906 453.855469 98.382812 450.28125 98.382812 L 450.28125 114.480469 L 466.378906 114.480469 C 466.378906 110.902344 467.628906 107.863281 470.132812 105.359375 C 472.640625 102.851562 475.660156 101.601562 479.195312 101.601562 C 482.734375 101.601562 485.757812 102.851562 488.261719 105.359375 C 490.765625 107.863281 492.015625 110.902344 492.015625 114.480469 C 492.015625 118.058594 490.765625 121.097656 488.261719 123.601562 C 485.757812 126.105469 482.714844 127.359375 479.136719 127.359375 Z M 479.136719 130.578125 "/>
<path fill-rule="nonzero" fill="rgb(100%, 100%, 100%)" fill-opacity="1" d="M 565.351562 127.359375 L 536.496094 127.359375 L 536.496094 130.578125 L 565.351562 130.578125 C 568.929688 130.578125 571.972656 131.828125 574.476562 134.335938 C 576.980469 136.839844 578.230469 139.859375 578.230469 143.398438 C 578.230469 146.933594 576.980469 149.957031 574.476562 152.460938 C 571.972656 154.964844 568.949219 156.21875 565.414062 156.21875 C 561.875 156.21875 558.855469 154.964844 556.351562 152.460938 C 553.847656 149.957031 552.59375 146.914062 552.59375 143.339844 L 549.375 143.339844 C 549.375 146.914062 548.121094 149.957031 545.617188 152.460938 C 543.113281 154.964844 540.074219 156.21875 536.496094 156.21875 C 532.917969 156.21875 529.878906 154.964844 527.371094 152.460938 C 524.867188 149.957031 523.617188 146.914062 523.617188 143.339844 L 520.398438 143.339844 C 520.398438 146.914062 519.144531 149.957031 516.640625 152.460938 C 514.136719 154.964844 511.117188 156.21875 507.578125 156.21875 C 504.039062 156.21875 501.019531 154.964844 498.515625 152.460938 C 496.011719 149.957031 494.757812 146.933594 494.757812 143.398438 C 494.757812 139.859375 496.011719 136.839844 498.515625 134.335938 C 501.019531 131.828125 504.058594 130.578125 507.636719 130.578125 L 507.636719 127.359375 C 504.058594 127.359375 501.019531 126.105469 498.515625 123.601562 C 496.011719 121.097656 494.757812 118.058594 494.757812 114.480469 C 494.757812 110.902344 496.011719 107.863281 498.515625 105.359375 C 501.019531 102.851562 504.058594 101.601562 507.636719 101.601562 L 507.636719 98.382812 C 504.058594 98.382812 501.019531 97.128906 498.515625 94.625 C 496.011719 92.121094 494.757812 89.101562 494.757812 85.5625 C 494.757812 82.023438 496.011719 79.003906 498.515625 76.5 C 501.019531 73.996094 504.039062 72.742188 507.578125 72.742188 C 511.117188 72.742188 514.136719 73.996094 516.640625 76.5 C 519.144531 79.003906 520.398438 82.046875 520.398438 85.621094 L 523.617188 85.621094 C 523.617188 82.046875 524.867188 79.003906 527.371094 76.5 C 529.878906 73.996094 532.917969 72.742188 536.496094 72.742188 C 540.074219 72.742188 543.113281 73.996094 545.617188 76.5 C 548.121094 79.003906 549.375 82.046875 549.375 85.621094 L 552.59375 85.621094 C 552.59375 82.046875 553.847656 79.003906 556.351562 76.5 C 558.855469 73.996094 561.875 72.742188 565.414062 72.742188 C 568.949219 72.742188 571.972656 73.996094 574.476562 76.5 C 576.980469 79.003906 578.230469 82.023438 578.230469 85.5625 C 578.230469 89.101562 576.980469 92.121094 574.476562 94.625 C 571.972656 97.128906 568.929688 98.382812 565.351562 98.382812 L 536.496094 98.382812 L 536.496094 101.601562 L 565.351562 101.601562 C 568.929688 101.601562 571.972656 102.851562 574.476562 105.359375 C 576.980469 107.863281 578.230469 110.902344 578.230469 114.480469 C 578.230469 118.058594 576.980469 121.097656 574.476562 123.601562 C 571.972656 126.105469 568.929688 127.359375 565.351562 127.359375 "/>
<path fill-rule="nonzero" fill="rgb(100%, 100%, 100%)" fill-opacity="1" d="M 652.882812 127.359375 L 652.882812 130.578125 C 656.457031 130.578125 659.5 131.828125 662.003906 134.335938 C 664.507812 136.839844 665.761719 139.859375 665.761719 143.398438 C 665.761719 146.933594 664.507812 149.957031 662.003906 152.460938 C 659.5 154.964844 656.476562 156.21875 652.941406 156.21875 C 649.402344 156.21875 646.382812 154.964844 643.878906 152.460938 C 641.375 149.957031 640.121094 146.914062 640.121094 143.339844 L 636.902344 143.339844 C 636.902344 146.914062 635.648438 149.957031 633.144531 152.460938 C 630.640625 154.964844 627.601562 156.21875 624.023438 156.21875 C 620.445312 156.21875 617.40625 154.964844 614.902344 152.460938 C 612.398438 149.957031 611.144531 146.914062 611.144531 143.339844 L 607.925781 143.339844 C 607.925781 146.914062 606.671875 149.957031 604.167969 152.460938 C 601.664062 154.964844 598.644531 156.21875 595.105469 156.21875 C 591.566406 156.21875 588.546875 154.964844 586.042969 152.460938 C 583.539062 149.957031 582.285156 146.933594 582.285156 143.398438 C 582.285156 139.859375 583.539062 136.839844 586.042969 134.335938 C 588.546875 131.828125 591.589844 130.578125 595.164062 130.578125 L 640.121094 130.578125 L 640.121094 127.359375 L 595.164062 127.359375 C 591.589844 127.359375 588.546875 126.105469 586.042969 123.601562 C 583.539062 121.097656 582.285156 118.058594 582.285156 114.480469 C 582.285156 110.902344 583.539062 107.863281 586.042969 105.359375 C 588.546875 102.851562 591.589844 101.601562 595.164062 101.601562 L 595.164062 98.382812 C 591.589844 98.382812 588.546875 97.128906 586.042969 94.625 C 583.539062 92.121094 582.285156 89.101562 582.285156 85.5625 C 582.285156 82.023438 583.539062 79.003906 586.042969 76.5 C 588.546875 73.996094 591.566406 72.742188 595.105469 72.742188 C 598.644531 72.742188 601.664062 73.996094 604.167969 76.5 C 606.671875 79.003906 607.925781 82.046875 607.925781 85.621094 L 611.144531 85.621094 C 611.144531 82.046875 612.398438 79.003906 614.902344 76.5 C 617.40625 73.996094 620.445312 72.742188 624.023438 72.742188 C 627.601562 72.742188 630.640625 73.996094 633.144531 76.5 C 635.648438 79.003906 636.902344 82.046875 636.902344 85.621094 L 640.121094 85.621094 C 640.121094 82.046875 641.375 79.003906 643.878906 76.5 C 646.382812 73.996094 649.402344 72.742188 652.941406 72.742188 C 656.476562 72.742188 659.5 73.996094 662.003906 76.5 C 664.507812 79.003906 665.761719 82.023438 665.761719 85.5625 C 665.761719 89.101562 664.507812 92.121094 662.003906 94.625 C 659.5 97.128906 656.457031 98.382812 652.882812 98.382812 L 607.925781 98.382812 L 607.925781 101.601562 L 652.882812 101.601562 C 656.457031 101.601562 659.5 102.851562 662.003906 105.359375 C 664.507812 107.863281 665.761719 110.902344 665.761719 114.480469 C 665.761719 118.058594 664.507812 121.097656 662.003906 123.601562 C 659.5 126.105469 656.457031 127.359375 652.882812 127.359375 "/>
<path fill-rule="nonzero" fill="rgb(100%, 100%, 100%)" fill-opacity="1" d="M 740.410156 127.359375 L 740.410156 130.578125 C 743.984375 130.578125 747.027344 131.828125 749.53125 134.335938 C 752.035156 136.839844 753.285156 139.859375 753.285156 143.398438 C 753.285156 146.933594 752.035156 149.957031 749.53125 152.460938 C 747.027344 154.964844 744.007812 156.21875 740.46875 156.21875 C 736.929688 156.21875 733.910156 154.964844 731.40625 152.460938 C 728.902344 149.957031 727.648438 146.914062 727.648438 143.339844 L 724.429688 143.339844 C 724.429688 146.914062 723.175781 149.957031 720.671875 152.460938 C 718.167969 154.964844 715.128906 156.21875 711.550781 156.21875 C 707.972656 156.21875 704.933594 154.964844 702.429688 152.460938 C 699.925781 149.957031 698.671875 146.914062 698.671875 143.339844 L 695.453125 143.339844 C 695.453125 146.914062 694.199219 149.957031 691.695312 152.460938 C 689.191406 154.964844 686.171875 156.21875 682.632812 156.21875 C 679.097656 156.21875 676.074219 154.964844 673.570312 152.460938 C 671.066406 149.957031 669.8125 146.933594 669.8125 143.398438 C 669.8125 139.859375 671.066406 136.839844 673.570312 134.335938 C 676.074219 131.828125 679.113281 130.578125 682.691406 130.578125 L 727.648438 130.578125 L 727.648438 127.359375 L 682.691406 127.359375 C 679.113281 127.359375 676.074219 126.105469 673.570312 123.601562 C 671.066406 121.097656 669.8125 118.058594 669.8125 114.480469 C 669.8125 110.902344 671.066406 107.863281 673.570312 105.359375 C 676.074219 102.851562 679.113281 101.601562 682.691406 101.601562 L 682.691406 98.382812 C 679.113281 98.382812 676.074219 97.128906 673.570312 94.625 C 671.066406 92.121094 669.8125 89.101562 669.8125 85.5625 C 669.8125 82.023438 671.066406 79.003906 673.570312 76.5 C 676.074219 73.996094 679.097656 72.742188 682.632812 72.742188 C 686.171875 72.742188 689.191406 73.996094 691.695312 76.5 C 694.199219 79.003906 695.453125 82.046875 695.453125 85.621094 L 698.671875 85.621094 C 698.671875 82.046875 699.925781 79.003906 702.429688 76.5 C 704.933594 73.996094 707.972656 72.742188 711.550781 72.742188 C 715.128906 72.742188 718.167969 73.996094 720.671875 76.5 C 723.175781 79.003906 724.429688 82.046875 724.429688 85.621094 L 727.648438 85.621094 C 727.648438 82.046875 728.902344 79.003906 731.40625 76.5 C 733.910156 73.996094 736.929688 72.742188 740.46875 72.742188 C 744.007812 72.742188 747.027344 73.996094 749.53125 76.5 C 752.035156 79.003906 753.285156 82.023438 753.285156 85.5625 C 753.285156 89.101562 752.035156 92.121094 749.53125 94.625 C 747.027344 97.128906 743.984375 98.382812 740.410156 98.382812 L 695.453125 98.382812 L 695.453125 101.601562 L 740.410156 101.601562 C 743.984375 101.601562 747.027344 102.851562 749.53125 105.359375 C 752.035156 107.863281 753.285156 110.902344 753.285156 114.480469 C 753.285156 118.058594 752.035156 121.097656 749.53125 123.601562 C 747.027344 126.105469 743.984375 127.359375 740.410156 127.359375 "/>
</svg>
